:SAMPLES-PER-SECOND 30
:FULLY-SPECIFIED
:DEGREES
51
root  67.5643 38.8396 -7.08086 0.672958 -88.0586 -0.311752
RightUpLeg  12.5732 -11.5422 -5.2451
RightLeg  12.165 -13.1915 1.73986
RightFoot  -17.402 0.0730245 3.54483
RightToes  0.000482159 0.542163 -0.142577
Spine  11.4585 0.595242 9.96435
Spine1  9.01722 3.0109 -5.25369
HEad  1.58024 -2.40223 -3.04213
LeftShoulder1  7.3338 -11.2881 -43.1093
LeftArm  -8.7357 13.5654 -24.0415
LeftForeArm  24.3246 -18.4357 -3.91353
LeftHand  -0.25398 0.0180481 5.50724
RightShoulder  5.75292 9.85042 37.0689
RightArm  -6.5934 -5.17769 29.4604
RightForeArm  -2.75214 46.9173 12.2091
RightHand  -2.16712 4.91302 -24.4213
LeftUpLeg  -25.225 16.4406 -5.50738
LeftLeg  26.7003 9.83038 5.66439
LeftFoot  -7.27755 0.0950897 -1.48131
LeftToes  1.06247e-005 4.65854e-005 -8.18502e-006
52
root  66.1772 38.4392 -7.07186 2.55991 -87.9081 -2.3914
RightUpLeg  14.0261 -15.4635 -6.72183
RightLeg  15.311 -7.41614 0.664276
RightFoot  -18.9432 0.340599 6.96204
RightToes  0.000482159 0.542163 -0.142577
Spine  10.6349 1.09578 8.88906
Spine1  9.2293 3.61124 -5.91575
HEad  0.508582 -3.48122 -0.960611
LeftShoulder1  7.34514 -11.6114 -42.1981
LeftArm  -9.15284 13.814 -22.6462
LeftForeArm  25.8294 -16.2652 -4.19187
LeftHand  -0.25398 0.0180481 5.50724
RightShoulder  5.87219 10.1322 37.0528
RightArm  -2.06025 -5.08821 29.5559
RightForeArm  -2.67939 42.0018 10.2599
RightHand  -1.99809 4.56107 -23.3508
LeftUpLeg  -24.0962 14.1293 -4.06401
LeftLeg  31.7925 10.2443 7.1121
LeftFoot  -9.69021 0.0820944 -1.75493
LeftToes  1.06247e-005 4.65854e-005 -8.18502e-006
53
root  64.7611 38.1362 -7.03971 -5.10246 -88.2527 5.50281
RightUpLeg  13.4479 -18.6185 -8.22037
RightLeg  20.8313 -2.01604 -1.13896
RightFoot  -18.4125 0.623745 12.4883
RightToes  0.000482159 0.542163 -0.142577
Spine  10.2147 1.54428 6.88325
Spine1  9.14546 4.05914 -6.62784
HEad  -1.57703 -4.05706 1.42476
LeftShoulder1  7.65612 -12.2518 -42.1958
LeftArm  -10.2522 12.7899 -21.3594
LeftForeArm  26.8209 -12.9677 -4.61073
LeftHand  -0.25398 0.0180481 5.50724
RightShoulder  6.03384 10.2788 37.7433
RightArm  4.02851 -5.83044 29.5187
RightForeArm  -3.54924 36.8685 8.61752
RightHand  -1.82454 4.16815 -22.2336
LeftUpLeg  -22.5177 13.1218 -3.41778
LeftLeg  34.815 9.86232 7.65412
LeftFoot  -13.0999 0.0530363 -1.81602
LeftToes  1.06247e-005 4.65854e-005 -8.18502e-006
54
root  63.3954 38.0483 -6.98024 -12.69 -88.5297 13.2796
RightUpLeg  8.61111 -15.0624 -7.51817
RightLeg  31.9692 -5.30275 -3.93853
RightFoot  -12.3374 0.0768846 14.9387
RightToes  0.000482159 0.542163 -0.142577
Spine  11.4186 1.57264 4.49392
Spine1  8.19569 3.90935 -6.61926
HEad  -5.09212 -4.21959 3.57399
LeftShoulder1  8.10656 -12.9466 -42.8362
LeftArm  -10.9733 9.78465 -21.1166
LeftForeArm  27.3922 -8.714 -4.99415
LeftHand  -0.25398 0.0180481 5.50724
RightShoulder  6.2713 10.4365 38.904
RightArm  9.61133 -7.93287 29.6767
RightForeArm  -5.90626 32.4609 7.49239
RightHand  -1.68484 3.73147 -21.5347
LeftUpLeg  -20.6174 13.8604 -3.16941
LeftLeg  35.7706 9.62153 7.73446
LeftFoot  -16.1356 0.0478413 -1.17761
LeftToes  1.06247e-005 4.65854e-005 -8.18502e-006
55
root  62.2117 37.9813 -6.913 -22.3589 -88.2702 22.8447
RightUpLeg  0.258569 -12.3693 -6.9817
RightLeg  47.2083 -6.37161 -7.50787
RightFoot  -1.26289 -0.935031 10.9565
RightToes  0.000482159 0.542163 -0.142577
Spine  14.8146 1.17814 1.52022
Spine1  6.32668 2.96832 -5.77448
HEad  -9.70406 -3.82681 4.93725
LeftShoulder1  8.56653 -13.6137 -43.5447
LeftArm  -10.2325 5.14057 -22.0534
LeftForeArm  27.9662 -5.41197 -5.30037
LeftHand  -0.25398 0.0180481 5.50724
RightShoulder  6.48466 10.5863 39.8912
RightArm  13.1596 -11.489 30.4899
RightForeArm  -9.13123 28.9481 6.75187
RightHand  -1.67244 3.4723 -21.9639
LeftUpLeg  -18.7975 15.0658 -3.17495
LeftLeg  36.3305 8.99576 7.40553
LeftFoot  -18.4 0.0454005 -1.02318
LeftToes  1.06247e-005 4.65854e-005 -8.18502e-006
56
root  61.2165 37.7456 -6.88224 -42.4126 -87.3359 42.8277
RightUpLeg  -9.5915 -9.95708 -6.96615
RightLeg  60.5467 -3.91855 -7.89956
RightFoot  6.31038 -0.776917 5.04844
RightToes  0.000482159 0.542163 -0.142577
Spine  19.2462 0.818936 -2.73355
Spine1  4.5958 1.43774 -4.34078
HEad  -14.9899 -2.52901 5.7383
LeftShoulder1  9.11069 -14.3266 -44.5036
LeftArm  -9.64921 -0.150693 -23.0395
LeftForeArm  29.3601 -5.13985 -5.7871
LeftHand  -0.25398 0.0180481 5.50724
RightShoulder  6.64665 10.713 40.5801
RightArm  16.0245 -16.0883 31.5529
RightForeArm  -11.5969 26.4067 6.2567
RightHand  -1.91084 4.02854 -23.5506
LeftUpLeg  -17.4329 15.5503 -3.8417
LeftLeg  37.4926 8.01792 6.93126
LeftFoot  -20.4703 -0.0460319 -2.10156
LeftToes  1.06247e-005 4.65854e-005 -8.18502e-006
57
root  60.1747 37.5817 -6.85567 -46.8976 -86.3177 47.6227
RightUpLeg  -19.451 -8.06698 -6.34145
RightLeg  68.6625 -2.2021 -7.07867
RightFoot  5.37217 -0.315371 2.39478
RightToes  0.000482159 0.542163 -0.142577
Spine  23.2814 0.532618 -6.68372
Spine1  3.5737 -0.356782 -1.95825
HEad  -20.6232 -0.373536 6.46842
LeftShoulder1  9.82384 -15.0695 -46.1291
LeftArm  -9.39486 -5.63518 -23.2254
LeftForeArm  30.2269 -8.04288 -6.20565
LeftHand  -0.25398 0.0180481 5.50724
RightShoulder  6.84303 10.8977 41.298
RightArm  20.668 -21.7843 32.066
RightForeArm  -11.6667 24.6782 5.85075
RightHand  -2.30692 5.45683 -24.7151
LeftUpLeg  -15.8639 15.4306 -4.26003
LeftLeg  37.8549 7.35812 6.48196
LeftFoot  -22.3517 -0.193863 -3.41374
LeftToes  1.06247e-005 4.65854e-005 -8.18502e-006
58
root  59.0364 37.5435 -6.80758 -40.885 -85.7197 42.3671
RightUpLeg  -28.6463 -6.98817 -4.75088
RightLeg  70.4423 -2.41822 -8.36821
RightFoot  0.388463 -0.320947 3.20777
RightToes  0.000482159 0.542163 -0.142577
Spine  26.7781 0.240854 -9.46603
Spine1  3.05058 -2.24061 1.2327
HEad  -26.06 2.10464 6.8305
LeftShoulder1  10.5196 -15.6923 -47.8386
LeftArm  -7.41657 -11.2494 -23.1412
LeftForeArm  29.024 -12.7921 -5.93555
LeftHand  -0.25398 0.0180481 5.50724
RightShoulder  7.04358 11.1023 41.961
RightArm  27.0206 -28.8518 31.8746
RightForeArm  -9.9302 23.18 5.55474
RightHand  -2.62416 7.05649 -24.5346
LeftUpLeg  -14.3895 14.9054 -4.0825
LeftLeg  37.5033 7.28566 6.34347
LeftFoot  -24.2964 -0.338977 -4.26568
LeftToes  1.06247e-005 4.65854e-005 -8.18502e-006
59
root  57.7833 37.3811 -6.7466 -35.6589 -84.8408 38.2238
RightUpLeg  -36.5011 -6.79467 -3.17947
RightLeg  67.0791 -3.57026 -9.90036
RightFoot  -2.93545 -0.319971 4.01625
RightToes  0.000482159 0.542163 -0.142577
Spine  29.4604 -0.113491 -12.0757
Spine1  2.51 -4.32469 4.63895
HEad  -30.6389 4.65891 6.04474
LeftShoulder1  10.8251 -15.9908 -48.4803
LeftArm  -3.57311 -16.2625 -23.8145
LeftForeArm  27.2025 -19.2321 -4.52562
LeftHand  -0.25398 0.0180481 5.50724
RightShoulder  7.09574 11.1647 42.1015
RightArm  32.8279 -36.9953 30.7887
RightForeArm  -9.26092 21.9009 5.70669
RightHand  -2.94303 8.5396 -24.5857
LeftUpLeg  -13.4506 13.3967 -4.24417
LeftLeg  37.7616 7.60569 6.66306
LeftFoot  -26.7699 -0.571718 -5.39255
LeftToes  1.06247e-005 4.65854e-005 -8.18502e-006
60
root  56.3268 37.1273 -6.60878 -34.2171 -83.867 38.06
RightUpLeg  -42.697 -7.04972 -1.82593
RightLeg  60.3812 -4.64563 -9.33156
RightFoot  -3.74955 -0.204113 2.69316
RightToes  0.000482159 0.542163 -0.142577
Spine  31.0269 -0.690127 -14.3047
Spine1  1.79321 -6.48845 8.39765
HEad  -34.0837 7.44953 4.07517
LeftShoulder1  10.6498 -15.8995 -47.9095
LeftArm  -3.37559 -19.7962 -25.1657
LeftForeArm  31.1537 -28.2242 -4.24606
LeftHand  -0.25398 0.0180481 5.50724
RightShoulder  6.91065 11.0077 41.3972
RightArm  36.465 -46.1901 28.0833
RightForeArm  -11.4355 22.49 5.86299
RightHand  -3.53592 10.0824 -26.4942
LeftUpLeg  -12.158 10.9669 -4.93533
LeftLeg  37.8138 8.4592 7.36319
LeftFoot  -28.8682 -0.867861 -6.75976
LeftToes  1.06247e-005 4.65854e-005 -8.18502e-006
61
root  54.655 36.902 -6.36783 -40.3963 -83.7315 45.2828
RightUpLeg  -46.8238 -6.54949 -0.803311
RightLeg  51.336 -5.16345 -7.26132
RightFoot  -4.30871 -0.201411 2.83353
RightToes  0.000482159 0.542163 -0.142577
Spine  31.8233 -1.00924 -15.6647
Spine1  1.1317 -8.02817 11.9067
HEad  -36.5196 10.2056 1.64434
LeftShoulder1  10.3411 -15.702 -46.9852
LeftArm  -5.31799 -21.9027 -26.5212
LeftForeArm  39.1042 -39.3032 -6.74819
LeftHand  -0.25398 0.0180481 5.50724
RightShoulder  6.46074 10.6358 39.5691
RightArm  35.0821 -56.189 24.2466
RightForeArm  -12.6129 26.18 6.21509
RightHand  -4.4399 12.0102 -29.4316
LeftUpLeg  -9.53052 9.5285 -5.8676
LeftLeg  36.7017 9.97383 8.2606
LeftFoot  -30.3513 -1.03335 -7.26869
LeftToes  1.06247e-005 4.65854e-005 -8.18502e-006
62
root  52.6394 36.5882 -6.03543 -56.3597 -84.2986 61.3474
RightUpLeg  -48.2917 -5.42208 -0.124379
RightLeg  42.7471 -5.44279 -5.64293
RightFoot  -5.26687 -0.320618 5.37099
RightToes  0.000482159 0.542163 -0.142577
Spine  31.8656 -1.2698 -15.8974
Spine1  0.638847 -8.60083 13.6594
HEad  -37.7365 12.44 -1.15578
LeftShoulder1  10.0918 -15.6713 -45.8944
LeftArm  -4.83111 -22.506 -27.9957
LeftForeArm  44.0223 -49.9108 -9.99883
LeftHand  -0.25398 0.0180481 5.50724
RightShoulder  5.83453 10.1595 36.6983
RightArm  28.3434 -65.0367 21.8328
RightForeArm  -10.513 31.6911 7.53115
RightHand  -5.51692 14.4547 -31.9145
LeftUpLeg  -4.79083 10.5578 -6.42335
LeftLeg  34.6256 11.0183 8.44958
LeftFoot  -32.9568 -1.20981 -7.35084
LeftToes  1.06247e-005 4.65854e-005 -8.18502e-006
63
root  50.2171 36.216 -5.57111 -69.4653 -85.5775 73.8353
RightUpLeg  -47.6042 -5.18716 1.72863
RightLeg  38.8064 -5.34988 -4.86463
RightFoot  -6.06555 -0.372561 7.19316
RightToes  0.000482159 0.542163 -0.142577
Spine  30.9082 -2.67697 -13.4545
Spine1  0.469403 -9.22146 14.2286
HEad  -37.1317 14.5935 -5.23279
LeftShoulder1  9.69524 -15.4967 -44.436
LeftArm  -4.44608 -20.3137 -30.7403
LeftForeArm  46.4171 -58.3499 -14.0646
LeftHand  -0.25398 0.0180481 5.50724
RightShoulder  5.36594 9.94465 33.9628
RightArm  19.6954 -70.7215 21.9791
RightForeArm  -8.95349 37.2616 9.03991
RightHand  -6.56619 16.7101 -33.9415
LeftUpLeg  2.14814 12.3963 -5.11154
LeftLeg  30.915 10.7417 7.24556
LeftFoot  -35.6333 -1.67588 -8.7814
LeftToes  1.06247e-005 4.65854e-005 -8.18502e-006
64
root  47.5486 35.9105 -5.01397 -53.1675 -87.6934 57.3847
RightUpLeg  -46.0332 -6.6656 5.13951
RightLeg  40.5061 -4.10005 -4.00288
RightFoot  -7.04996 -0.281541 6.22701
RightToes  0.000482159 0.542163 -0.142577
Spine  28.9727 -5.19807 -8.40321
Spine1  0.19604 -10.7516 16.1075
HEad  -35.0668 17.3543 -10.8481
LeftShoulder1  9.36943 -14.9578 -44.2003
LeftArm  -4.46739 -14.7579 -35.0257
LeftForeArm  47.5527 -63.5642 -17.7736
LeftHand  -0.25398 0.0180481 5.50724
RightShoulder  5.34705 10.209 33.0463
RightArm  11.8563 -72.5561 21.0399
RightForeArm  -9.3565 43.5331 11.2549
RightHand  -7.37313 17.7838 -36.168
LeftUpLeg  8.6342 12.2274 -2.33777
LeftLeg  27.5485 10.3891 6.14268
LeftFoot  -34.2452 -1.98892 -10.8614
LeftToes  1.06247e-005 4.65854e-005 -8.18502e-006
65
root  44.719 35.6151 -4.53236 15.8047 -88.7844 -11.3591
RightUpLeg  -43.7651 -8.68415 8.01326
RightLeg  45.2081 -2.39851 -2.90572
RightFoot  -9.66269 -0.106906 1.60687
RightToes  0.000482159 0.542163 -0.142577
Spine  26.9522 -6.92326 -4.0078
Spine1  -1.02761 -12.0213 19.884
HEad  -33.6093 20.2213 -16.7442
LeftShoulder1  9.85566 -14.7283 -47.1543
LeftArm  -3.44826 -7.7392 -38.1043
LeftForeArm  48.025 -63.0437 -17.446
LeftHand  -0.25398 0.0180481 5.50724
RightShoulder  5.68754 10.4458 34.8198
RightArm  4.65576 -69.2008 18.9598
RightForeArm  -9.6003 51.8134 15.1518
RightHand  -7.80504 17.8196 -38.0548
LeftUpLeg  10.6413 10.3386 -0.688602
LeftLeg  31.9098 11.5424 8.09497
LeftFoot  -28.3921 -1.41529 -10.4066
LeftToes  1.06247e-005 4.65854e-005 -8.18502e-006
